<svg width="28" height="28" viewBox="0 0 28 28" fill="none" xmlns="http://www.w3.org/2000/svg">
<path fill-rule="evenodd" clip-rule="evenodd" d="M14 17.5367L22.8383 26.375C23.3073 26.844 23.9434 27.1075 24.6066 27.1075C25.2699 27.1075 25.906 26.844 26.375 26.375C26.844 25.906 27.1074 25.2699 27.1074 24.6067C27.1074 23.9434 26.844 23.3073 26.375 22.8383L17.5333 14L26.3733 5.16167C26.6054 4.92945 26.7895 4.65378 26.9151 4.35041C27.0407 4.04704 27.1053 3.72191 27.1052 3.39358C27.1051 3.06525 27.0404 2.74014 26.9146 2.43683C26.7889 2.13352 26.6047 1.85795 26.3725 1.62583C26.1402 1.39372 25.8646 1.20962 25.5612 1.08405C25.2578 0.958471 24.9327 0.893878 24.6044 0.893955C24.276 0.894033 23.9509 0.958779 23.6476 1.0845C23.3443 1.21022 23.0687 1.39445 22.8366 1.62667L14 10.465L5.16164 1.62667C4.93113 1.38779 4.65536 1.1972 4.35041 1.06604C4.04547 0.934874 3.71745 0.865755 3.3855 0.862715C3.05356 0.859675 2.72433 0.922774 2.41703 1.04833C2.10973 1.17389 1.83052 1.35939 1.59568 1.59401C1.36083 1.82863 1.17507 2.10767 1.04922 2.41485C0.923377 2.72203 0.859967 3.0512 0.862694 3.38315C0.865421 3.7151 0.93423 4.04318 1.06511 4.34825C1.19598 4.65332 1.38631 4.92927 1.62497 5.16L10.4666 14L1.62664 22.84C1.38797 23.0707 1.19765 23.3467 1.06677 23.6518C0.935897 23.9568 0.867088 24.2849 0.864361 24.6169C0.861634 24.9488 0.925044 25.278 1.05089 25.5851C1.17674 25.8923 1.3625 26.1714 1.59734 26.406C1.83218 26.6406 2.1114 26.8261 2.4187 26.9517C2.726 27.0772 3.05522 27.1403 3.38717 27.1373C3.71912 27.1342 4.04713 27.0651 4.35208 26.934C4.65703 26.8028 4.9328 26.6122 5.1633 26.3733L14 17.5367Z" fill="#FF3333"/>
</svg>
