<svg width="27" height="27" viewBox="0 0 27 27" fill="none" xmlns="http://www.w3.org/2000/svg">
<path d="M2.5 3.875C2.5 3.51033 2.64487 3.16059 2.90273 2.90273C3.16059 2.64487 3.51033 2.5 3.875 2.5H9.375C9.73967 2.5 10.0894 2.64487 10.3473 2.90273C10.6051 3.16059 10.75 3.51033 10.75 3.875V10.75C10.75 11.1147 10.6051 11.4644 10.3473 11.7223C10.0894 11.9801 9.73967 12.125 9.375 12.125H3.875C3.51033 12.125 3.16059 11.9801 2.90273 11.7223C2.64487 11.4644 2.5 11.1147 2.5 10.75V3.875ZM16.25 3.875C16.25 3.51033 16.3949 3.16059 16.6527 2.90273C16.9106 2.64487 17.2603 2.5 17.625 2.5H23.125C23.4897 2.5 23.8394 2.64487 24.0973 2.90273C24.3551 3.16059 24.5 3.51033 24.5 3.875V6.625C24.5 6.98967 24.3551 7.33941 24.0973 7.59727C23.8394 7.85513 23.4897 8 23.125 8H17.625C17.2603 8 16.9106 7.85513 16.6527 7.59727C16.3949 7.33941 16.25 6.98967 16.25 6.625V3.875ZM2.5 19C2.5 18.6353 2.64487 18.2856 2.90273 18.0277C3.16059 17.7699 3.51033 17.625 3.875 17.625H9.375C9.73967 17.625 10.0894 17.7699 10.3473 18.0277C10.6051 18.2856 10.75 18.6353 10.75 19V23.125C10.75 23.4897 10.6051 23.8394 10.3473 24.0973C10.0894 24.3551 9.73967 24.5 9.375 24.5H3.875C3.51033 24.5 3.16059 24.3551 2.90273 24.0973C2.64487 23.8394 2.5 23.4897 2.5 23.125V19ZM16.25 14.875C16.25 14.5103 16.3949 14.1606 16.6527 13.9027C16.9106 13.6449 17.2603 13.5 17.625 13.5H23.125C23.4897 13.5 23.8394 13.6449 24.0973 13.9027C24.3551 14.1606 24.5 14.5103 24.5 14.875V23.125C24.5 23.4897 24.3551 23.8394 24.0973 24.0973C23.8394 24.3551 23.4897 24.5 23.125 24.5H17.625C17.2603 24.5 16.9106 24.3551 16.6527 24.0973C16.3949 23.8394 16.25 23.4897 16.25 23.125V14.875Z" stroke="#F4F4F4" stroke-width="3.33333"/>
</svg>
