<svg width="30" height="30" viewBox="0 0 30 30" fill="none" xmlns="http://www.w3.org/2000/svg">
<path d="M15.5274 1.99219L18.3339 4.09711L21.9411 11.3113L21.469 13.1998L20.0075 12.9562L20.1927 12.339L20.3592 11.784L15 10.7123L9.64087 11.784L9.99255 12.9562L8.53104 13.1997L8.05896 11.3113L11.666 4.09723L14.4727 1.99219V5.27344H12.1875L11.25 7.14844L15 9.375L18.75 7.14844L17.8125 5.27344H15.5274V1.99219ZM26.5613 11.9096L28.3367 12.5015L27.547 14.2127L25.7883 13.9197L26.5613 11.9096ZM3.43872 11.9096L4.21181 13.9196L2.45306 14.2127L1.66333 12.5015L3.43872 11.9096ZM15 12.0305L18.1524 15.4695L16.4828 21.0352H13.5174L11.8477 15.4695L15 12.0305ZM16.4798 12.0837L19.0159 12.591L18.5052 14.2933L16.4798 12.0837ZM13.5203 12.0838L11.4948 14.2934L10.9842 12.591L13.5203 12.0838ZM19.7019 13.9745L28.2715 15.4027L25.1836 21.5789L19.3348 15.1983L19.7019 13.9745ZM10.2981 13.9745L10.6653 15.1983L4.81644 21.5788L1.72854 15.4027L10.2981 13.9745ZM18.982 16.3745L23.2125 20.9896L18.2581 18.7876L18.982 16.3745ZM11.0181 16.3745L11.742 18.7876L6.78753 20.9896L11.0181 16.3745ZM17.9525 19.806L19.631 20.552L18.3383 25.7227H15.5274V22.0898H17.2673L17.9525 19.806ZM12.0475 19.806L12.7327 22.0898H14.4727V25.7227H11.6618L10.3691 20.552L12.0475 19.806ZM22.711 21.9208L23.7718 22.3923L23.1868 23.66L22.2266 23.1799L22.711 21.9208ZM7.28909 21.9208L7.77343 23.1799L6.81325 23.66L6.22825 22.3923L7.28909 21.9208ZM18.2227 26.7773V28.5352H16.4649V26.7773H18.2227ZM13.5352 26.7773V28.5352H11.7774V26.7773H13.5352Z" fill="#66CCFF"/>
</svg>
