<svg width="40" height="40" viewBox="0 0 40 40" fill="none" xmlns="http://www.w3.org/2000/svg">
<g clip-path="url(#clip0_27_973)">
<path d="M20 0C19.6287 0 19.2726 0.1475 19.01 0.41005C18.7475 0.672601 18.6 1.0287 18.6 1.4V33.4C18.6 33.7713 18.7475 34.1274 19.01 34.3899C19.2726 34.6525 19.6287 34.8 20 34.8C20.3713 34.8 20.7274 34.6525 20.9899 34.3899C21.2525 34.1274 21.4 33.7713 21.4 33.4V18.8H38.6C38.9713 18.8 39.3274 18.6525 39.5899 18.3899C39.8525 18.1274 40 17.7713 40 17.4V1.4C40 1.0287 39.8525 0.672601 39.5899 0.41005C39.3274 0.1475 38.9713 0 38.6 0H20.2C20.1661 0.00010266 20.1322 0.00143687 20.0984 0.004C20.0656 0.00151308 20.0328 0.000178926 20 0Z" fill="#66CCFF"/>
<path d="M15.2016 30.7168C10.964 31.316 8 32.7488 8 34.8572C8 37.6972 12.9524 40 20 40C27.0476 40 32 37.6976 32 34.8572C32 32.7484 29.036 31.316 24.7988 30.7172L24.2116 31.7168C27.4056 32.1596 29.6 33.0912 29.6 34.1716C29.6 35.6864 25.302 36.9144 20 36.9144C14.698 36.9144 10.4 35.6864 10.4 34.1716C10.3996 33.0948 12.58 32.1644 15.7836 31.7196C15.59 31.3852 15.3956 31.0516 15.2016 30.7168Z" fill="#66CCFF"/>
</g>
<defs>
<clipPath id="clip0_27_973">
<rect width="40" height="40" fill="white"/>
</clipPath>
</defs>
</svg>
