<svg width="36" height="34" viewBox="0 0 36 34" fill="none" xmlns="http://www.w3.org/2000/svg">
<path d="M34.7898 0.328262L31.0393 3.76088L29.4112 8.00768C26.8405 9.15399 25.852 9.82173 24.8489 13.5647L27.7853 12.2543L27.6462 14.6363L30.4177 15.7009L32.0319 13.8825L33.34 16.8186C35.1599 13.6668 35.2447 12.125 33.6578 9.63574L35.2859 5.38894L34.7896 0.328262H34.7898ZM27.878 16.5359C26.666 18.4032 25.0565 20.1407 23.1976 21.5988C23.1959 21.6002 23.1948 21.6022 23.1931 21.6035C20.4246 23.362 17.0129 23.7661 14.4283 22.7679C15.6333 23.8853 17.2215 24.3046 18.8187 24.1896C15.1516 25.2935 11.2247 24.8663 8.45603 23.1297C9.50563 24.5647 11.0161 25.4469 12.6843 25.8456C8.31056 26.0926 3.93432 24.3766 0.628174 19.6112L0.628322 32.0822C5.52008 34.2085 10.6588 33.5383 15.1914 31.2242L13.9319 33.8797L20.4725 27.5689H20.4656C20.614 27.4356 20.7605 27.3017 20.9061 27.1653L20.069 30.4263L24.5081 23.0461C25.9679 21.0006 27.1246 18.7871 27.8781 16.5358L27.878 16.5359Z" fill="#66CCFF"/>
</svg>
