<svg width="28" height="36" viewBox="0 0 28 36" fill="none" xmlns="http://www.w3.org/2000/svg">
<path d="M14.549 35.4515L12.9679 25.7192L11.9944 35.2078L8.70964 33.3826L12.3481 20.8435L15.4002 25.8407L16.8597 32.6534L14.549 35.4515ZM3.14227 35.1635L2.56188 33.0963L0.500383 32.4267L2.56648 31.8459L3.23594 29.7838L3.81707 31.8504L5.87909 32.5206L3.81254 33.101L3.14227 35.1635ZM7.66516 31.0462L5.51505 30.8798L0.753172 23.0579L0.445312 16.9044L6.26874 19.1562L10.0613 24.2005L8.84428 28.8728L4.1607 22.7092L7.66531 31.0462H7.66516ZM18.4761 28.9119L17.2129 28.7541L16.5814 25.5164L15.5216 23.5292L22.3344 16.7165L24.6463 17.4457L23.673 22.9203L18.4762 28.9119L18.4761 28.9119ZM19.8379 25.8026L21.8618 23.389L22.6025 20.3518L20.7335 22.7654L19.8379 25.8026ZM10.5667 22.9522L7.70725 19.1211L9.34971 11.0294L15.068 3.97473L19.7515 10.3002L19.2654 18.1477L14.8856 22.6483L12.0876 18.3902L10.5667 22.9522ZM14.0787 19.4454L16.096 12.4243L17.932 10.7278L15.8516 11.0136L15.0254 7.80138L14.5387 11.0136L11.1733 11.423L14.5211 12.6231L14.0788 19.4453L14.0787 19.4454ZM6.86108 17.9813L4.79216 14.6959L5.52247 7.76286L7.83386 12.3856L6.861 17.9814L6.86108 17.9813ZM24.099 16.3143L23.3664 13.7037L20.7631 12.8581L23.3721 12.1243L24.2177 9.52103L24.9514 12.1306L27.5547 12.9768L24.9457 13.7093L24.0988 16.3144L24.099 16.3143ZM8.22359 9.04514L7.30743 5.78025L4.05101 4.72264L7.31485 3.80492L8.37225 0.5485L9.29011 3.81234L12.5459 4.87093L9.28261 5.78753L8.22359 9.04514Z" fill="#66CCFF"/>
</svg>
