<svg width="28" height="28" viewBox="0 0 28 28" fill="none" xmlns="http://www.w3.org/2000/svg">
<path d="M7.4375 0.347656C6.89363 0.347656 6.44141 0.799883 6.44141 1.34375C6.44141 1.69473 6.63031 2.00686 6.91016 2.18457V4.55527L6.02211 4.9877L4.37188 12.4139L8.8543 11.6668L9.74715 6.30934L12.5754 1.7968L7.96484 4.04182V2.18457C8.24469 2.00686 8.43359 1.69473 8.43359 1.34375C8.43359 0.799883 7.98137 0.347656 7.4375 0.347656ZM14 1.50969L10.8723 6.5H17.1277L14 1.50969ZM23.375 1.63672C21.9125 1.63672 20.7383 2.81094 20.7383 4.27344C20.7383 5.73594 21.9125 6.91016 23.375 6.91016C24.8375 6.91016 26.0117 5.73594 26.0117 4.27344C26.0117 2.81094 24.8375 1.63672 23.375 1.63672ZM15.4246 1.7968L18.2529 6.30934L19.1357 11.607L23.6262 12.4049L22.6222 7.88703C20.9484 7.53758 19.6836 6.04807 19.6836 4.27344C19.6836 4.14084 19.691 4.00994 19.7047 3.88086L15.4246 1.7968ZM23.375 3.16016C23.9189 3.16016 24.3711 3.61238 24.3711 4.15625C24.3711 4.70012 23.9189 5.15234 23.375 5.15234C22.8311 5.15234 22.3789 4.70012 22.3789 4.15625C22.3789 3.61238 22.8311 3.16016 23.375 3.16016ZM6.5 5.97266H8.375V7.02734H6.5V5.97266ZM10.25 11.1875L11.1875 13.0625H16.8125L17.75 11.1875H10.25ZM19.032 12.66L16.7199 18.0545L22.0606 17.2723L23.5821 13.4684L19.032 12.6599L19.032 12.66ZM8.98508 12.7142L4.42051 13.475L5.93937 17.2722L11.1832 18.0404L8.98508 12.7142V12.7142ZM10.6568 14L12.3976 18.2183L14 18.453L15.4957 18.2339L17.3102 14H10.6569H10.6568ZM5.67852 18.2999L2.40723 25.6602H0.875V26.7148H4.625V25.6602H3.56152L3.9449 24.7977C3.95393 24.7941 3.9616 24.7905 3.97338 24.7871C4.056 24.7629 4.15443 24.731 4.27203 24.6912C4.50723 24.6116 4.81672 24.5008 5.17813 24.3681C5.90117 24.1027 6.82971 23.7506 7.74805 23.3986C8.66278 23.0479 9.57649 22.6945 10.4892 22.3385L13.4727 24.5762V26.5977H12.125V27.6523H15.875V26.5977H14.5273V24.5762L17.5108 22.3385C18.4235 22.6945 19.3371 23.0479 20.2518 23.3987C21.1703 23.7507 22.0989 24.1028 22.8218 24.3681C23.1833 24.5007 23.4927 24.6116 23.7279 24.6911C23.8455 24.731 23.9439 24.7629 24.0266 24.7871C24.0385 24.7904 24.0461 24.7941 24.0552 24.7976L24.4385 25.6602H23.375V26.7148H27.125V25.6602H25.5928L22.3215 18.3L21.2379 18.4588L23.4701 23.4813C23.3763 23.4474 23.2886 23.4159 23.1853 23.378C22.4714 23.1161 21.5453 22.765 20.6294 22.4139C19.8613 22.1192 19.094 21.8228 18.3273 21.5247L19.7514 18.6765L18.479 18.8629L17.4242 20.9727H14.5273V19.4416L14 19.5189L13.4727 19.4416V20.9727H10.5759L9.52104 18.8628L8.2485 18.6765L9.67256 21.5246C8.90593 21.8228 8.1386 22.1192 7.37059 22.4138C6.45459 22.7649 5.5284 23.116 4.81461 23.378C4.71125 23.416 4.62359 23.4475 4.52984 23.4813L6.76197 18.4587L5.6784 18.2999H5.67852ZM11.832 22.0273H13.4727V23.2578L11.832 22.0273ZM14.5273 22.0273H16.168L14.5273 23.2578V22.0273Z" fill="#66CCFF"/>
</svg>
