<svg width="60" height="60" viewBox="0 0 60 60" fill="none" xmlns="http://www.w3.org/2000/svg">
<path d="M40 40C40 37.2375 32.165 35 22.5 35M40 40C40 42.7625 32.165 45 22.5 45C12.835 45 5 42.7625 5 40M40 40V52.3425C40 55.19 32.165 57.5 22.5 57.5C12.835 57.5 5 55.1925 5 52.3425V40M40 40C49.56 40 57.5 37.5325 57.5 35V10M22.5 35C12.835 35 5 37.2375 5 40M22.5 35C11.455 35 2.5 32.5325 2.5 30V17.5M22.5 12.5C11.455 12.5 2.5 14.7375 2.5 17.5M2.5 17.5C2.5 20.2625 11.455 22.5 22.5 22.5C22.5 25.0325 30.6325 27.5 40.1925 27.5C49.75 27.5 57.5 25.0325 57.5 22.5M57.5 10C57.5 7.2375 49.75 5 40.1925 5C30.6325 5 22.885 7.2375 22.885 10M57.5 10C57.5 12.7625 49.75 15 40.1925 15C30.635 15 22.885 12.7625 22.885 10M22.885 10V35.415" stroke="#66CCFF" stroke-width="2.5"/>
</svg>
