<svg width="33" height="29" viewBox="0 0 33 29" fill="none" xmlns="http://www.w3.org/2000/svg">
<path d="M29.4583 25.0833H2.54165C1.67082 25.0833 0.958318 25.7958 0.958318 26.6667C0.958318 27.5375 1.67082 28.25 2.54165 28.25H29.4583C30.3292 28.25 31.0417 27.5375 31.0417 26.6667C31.0417 25.7958 30.3292 25.0833 29.4583 25.0833ZM31.9442 10.2633C31.5958 8.99666 30.2975 8.25249 29.0308 8.58499L20.6233 10.8333L10.395 1.30166C10.1834 1.10108 9.92314 0.959088 9.63995 0.889679C9.35676 0.820269 9.06037 0.825834 8.77998 0.905824C7.70332 1.20666 7.19665 2.44166 7.75082 3.40749L13.1975 12.8442L5.32832 14.95L2.84248 12.9867C2.44665 12.6858 1.93998 12.575 1.44915 12.7017L0.926651 12.8442C0.419984 12.9708 0.182484 13.5567 0.451651 14L3.42832 19.1458C3.79248 19.7633 4.52082 20.0642 5.20165 19.89L30.25 13.1767C31.5167 12.8283 32.2767 11.53 31.9442 10.2633Z" fill="#66CCFF"/>
</svg>
