<svg width="30" height="30" viewBox="0 0 30 30" fill="none" xmlns="http://www.w3.org/2000/svg">
<path d="M9.0625 10C9.0625 9.75136 9.16127 9.5129 9.33709 9.33709C9.5129 9.16127 9.75136 9.0625 10 9.0625H20C20.2486 9.0625 20.4871 9.16127 20.6629 9.33709C20.8387 9.5129 20.9375 9.75136 20.9375 10C20.9375 10.2486 20.8387 10.4871 20.6629 10.6629C20.4871 10.8387 20.2486 10.9375 20 10.9375H10C9.75136 10.9375 9.5129 10.8387 9.33709 10.6629C9.16127 10.4871 9.0625 10.2486 9.0625 10ZM10 15.9375H20C20.2486 15.9375 20.4871 15.8387 20.6629 15.6629C20.8387 15.4871 20.9375 15.2486 20.9375 15C20.9375 14.7514 20.8387 14.5129 20.6629 14.3371C20.4871 14.1613 20.2486 14.0625 20 14.0625H10C9.75136 14.0625 9.5129 14.1613 9.33709 14.3371C9.16127 14.5129 9.0625 14.7514 9.0625 15C9.0625 15.2486 9.16127 15.4871 9.33709 15.6629C9.5129 15.8387 9.75136 15.9375 10 15.9375ZM15 19.0625H10C9.75136 19.0625 9.5129 19.1613 9.33709 19.3371C9.16127 19.5129 9.0625 19.7514 9.0625 20C9.0625 20.2486 9.16127 20.4871 9.33709 20.6629C9.5129 20.8387 9.75136 20.9375 10 20.9375H15C15.2486 20.9375 15.4871 20.8387 15.6629 20.6629C15.8387 20.4871 15.9375 20.2486 15.9375 20C15.9375 19.7514 15.8387 19.5129 15.6629 19.3371C15.4871 19.1613 15.2486 19.0625 15 19.0625ZM29.6875 2.5V19.4828C29.688 19.7702 29.6317 20.0548 29.5218 20.3203C29.4118 20.5857 29.2504 20.8269 29.0469 21.0297L21.0297 29.0469C20.8269 29.2504 20.5857 29.4118 20.3203 29.5218C20.0548 29.6317 19.7702 29.688 19.4828 29.6875H2.5C1.91984 29.6875 1.36344 29.457 0.953204 29.0468C0.542968 28.6366 0.3125 28.0802 0.3125 27.5V2.5C0.3125 1.91984 0.542968 1.36344 0.953204 0.953204C1.36344 0.542968 1.91984 0.3125 2.5 0.3125H27.5C28.0802 0.3125 28.6366 0.542968 29.0468 0.953204C29.457 1.36344 29.6875 1.91984 29.6875 2.5ZM2.5 27.8125H19.0625V20C19.0625 19.7514 19.1613 19.5129 19.3371 19.3371C19.5129 19.1613 19.7514 19.0625 20 19.0625H27.8125V2.5C27.8125 2.41712 27.7796 2.33763 27.721 2.27903C27.6624 2.22042 27.5829 2.1875 27.5 2.1875H2.5C2.41712 2.1875 2.33763 2.22042 2.27903 2.27903C2.22042 2.33763 2.1875 2.41712 2.1875 2.5V27.5C2.1875 27.5829 2.22042 27.6624 2.27903 27.721C2.33763 27.7796 2.41712 27.8125 2.5 27.8125ZM26.4875 20.9375H20.9375V26.4875L26.4875 20.9375Z" fill="#9933CC"/>
</svg>
