<svg width="38" height="38" viewBox="0 0 38 38" fill="none" xmlns="http://www.w3.org/2000/svg">
<path d="M19 19C20.8897 19 22.7019 18.2493 24.0381 16.9131C25.3743 15.5769 26.125 13.7647 26.125 11.875C26.125 9.98533 25.3743 8.17306 24.0381 6.83686C22.7019 5.50067 20.8897 4.75 19 4.75C17.1103 4.75 15.2981 5.50067 13.9619 6.83686C12.6257 8.17306 11.875 9.98533 11.875 11.875C11.875 13.7647 12.6257 15.5769 13.9619 16.9131C15.2981 18.2493 17.1103 19 19 19ZM19 21.375C16.4804 21.375 14.0641 20.3741 12.2825 18.5925C10.5009 16.8109 9.5 14.3946 9.5 11.875C9.5 9.35544 10.5009 6.93908 12.2825 5.15749C14.0641 3.37589 16.4804 2.375 19 2.375C21.5196 2.375 23.9359 3.37589 25.7175 5.15749C27.4991 6.93908 28.5 9.35544 28.5 11.875C28.5 14.3946 27.4991 16.8109 25.7175 18.5925C23.9359 20.3741 21.5196 21.375 19 21.375Z" fill="#66CCFF"/>
<path d="M19 19C19.3149 19 19.617 19.1251 19.8397 19.3478C20.0624 19.5705 20.1875 19.8726 20.1875 20.1875V29.6875C20.1875 30.0024 20.0624 30.3045 19.8397 30.5272C19.617 30.7499 19.3149 30.875 19 30.875C18.6851 30.875 18.383 30.7499 18.1603 30.5272C17.9376 30.3045 17.8125 30.0024 17.8125 29.6875V20.1875C17.8125 19.8726 17.9376 19.5705 18.1603 19.3478C18.383 19.1251 18.6851 19 19 19Z" fill="#66CCFF"/>
<path d="M14.25 24.0872V26.4979C10.0106 27.1771 7.125 28.6449 7.125 29.6875C7.125 31.0864 12.3168 33.25 19 33.25C25.6833 33.25 30.875 31.0864 30.875 29.6875C30.875 28.6425 27.9894 27.1771 23.75 26.4979V24.0872C29.2838 24.9019 33.25 27.1035 33.25 29.6875C33.25 32.965 26.8708 35.625 19 35.625C11.1293 35.625 4.75 32.965 4.75 29.6875C4.75 27.1011 8.71625 24.9019 14.25 24.0872Z" fill="#66CCFF"/>
</svg>
