<svg width="30" height="30" viewBox="0 0 30 30" fill="none" xmlns="http://www.w3.org/2000/svg">
<g clip-path="url(#clip0_6_487)">
<path d="M13.125 2.5C15.1199 2.49987 17.0746 3.06138 18.7653 4.12029C20.4561 5.1792 21.8145 6.69271 22.6852 8.48762C23.5559 10.2825 23.9037 12.2863 23.6888 14.2697C23.4739 16.253 22.7049 18.1358 21.47 19.7025L26.035 24.2675C26.2626 24.5033 26.3886 24.819 26.3858 25.1468C26.3829 25.4745 26.2515 25.788 26.0197 26.0198C25.788 26.2515 25.4744 26.383 25.1467 26.3858C24.819 26.3887 24.5032 26.2627 24.2675 26.035L19.7025 21.47C18.3718 22.5187 16.8096 23.234 15.1462 23.5561C13.4829 23.8783 11.7666 23.798 10.1406 23.322C8.51458 22.846 7.02599 21.988 5.799 20.8197C4.57201 19.6513 3.64221 18.2065 3.08717 16.6057C2.53214 15.005 2.36796 13.2947 2.60834 11.6176C2.84871 9.94043 3.48667 8.34511 4.469 6.96469C5.45132 5.58427 6.74951 4.45878 8.25527 3.68212C9.76103 2.90546 11.4307 2.50014 13.125 2.5ZM13.125 5C10.9701 5 8.90344 5.85602 7.37971 7.37976C5.85597 8.90349 4.99995 10.9701 4.99995 13.125C4.99995 15.2799 5.85597 17.3465 7.37971 18.8702C8.90344 20.394 10.9701 21.25 13.125 21.25C15.2798 21.25 17.3465 20.394 18.8702 18.8702C20.3939 17.3465 21.25 15.2799 21.25 13.125C21.25 10.9701 20.3939 8.90349 18.8702 7.37976C17.3465 5.85602 15.2798 5 13.125 5ZM13.125 6.25C14.9483 6.25 16.697 6.97433 17.9863 8.26364C19.2756 9.55295 20 11.3016 20 13.125C20 14.9484 19.2756 16.697 17.9863 17.9864C16.697 19.2757 14.9483 20 13.125 20C11.3016 20 9.5529 19.2757 8.26359 17.9864C6.97428 16.697 6.24995 14.9484 6.24995 13.125C6.24995 11.3016 6.97428 9.55295 8.26359 8.26364C9.5529 6.97433 11.3016 6.25 13.125 6.25Z" fill="#66CCFF"/>
</g>
<defs>
<clipPath id="clip0_6_487">
<rect width="30" height="30" fill="white"/>
</clipPath>
</defs>
</svg>
