<svg width="28" height="27" viewBox="0 0 28 27" fill="none" xmlns="http://www.w3.org/2000/svg">
<path d="M14.5274 -0.0078125L17.3339 2.09711L20.9411 9.31135L20.469 11.1998L19.0075 10.9562L19.1927 10.339L19.3592 9.78397L14 8.71229L8.64087 9.78397L8.99255 10.9562L7.53104 11.1997L7.05896 9.31135L10.666 2.09723L13.4727 -0.0078125V3.27344H11.1875L10.25 5.14844L14 7.375L17.75 5.14844L16.8125 3.27344H14.5274V-0.0078125ZM25.5613 9.90965L27.3367 10.5015L26.547 12.2127L24.7883 11.9197L25.5613 9.90965ZM2.43872 9.90965L3.21181 11.9196L1.45306 12.2127L0.66333 10.5015L2.43872 9.90965ZM14 10.0305L17.1524 13.4695L15.4828 19.0352H12.5174L10.8477 13.4695L14 10.0305ZM15.4798 10.0837L18.0159 10.591L17.5052 12.2933L15.4798 10.0837ZM12.5203 10.0838L10.4948 12.2934L9.98419 10.591L12.5203 10.0838ZM18.7019 11.9745L27.2715 13.4027L24.1836 19.5789L18.3348 13.1983L18.7019 11.9745ZM9.29812 11.9745L9.66526 13.1983L3.81644 19.5788L0.728545 13.4027L9.29812 11.9745ZM17.982 14.3745L22.2125 18.9896L17.2581 16.7876L17.982 14.3745ZM10.0181 14.3745L10.742 16.7876L5.78753 18.9896L10.0181 14.3745ZM16.9525 17.806L18.631 18.552L17.3383 23.7227H14.5274V20.0898H16.2673L16.9525 17.806ZM11.0475 17.806L11.7327 20.0898H13.4727V23.7227H10.6618L9.36907 18.552L11.0475 17.806ZM21.711 19.9208L22.7718 20.3923L22.1868 21.66L21.2266 21.1799L21.711 19.9208ZM6.28909 19.9208L6.77343 21.1799L5.81325 21.66L5.22825 20.3923L6.28909 19.9208ZM17.2227 24.7773V26.5352H15.4649V24.7773H17.2227ZM12.5352 24.7773V26.5352H10.7774V24.7773H12.5352Z" fill="#020202"/>
</svg>
