<svg width="33" height="33" viewBox="0 0 33 33" fill="none" xmlns="http://www.w3.org/2000/svg">
<path d="M19.0486 4.32642C19.1774 4.45535 19.2499 4.63019 19.2499 4.81249C19.2499 4.99479 19.1774 5.16962 19.0486 5.29855L17.4721 6.87499L19.0486 8.45142C19.1738 8.58109 19.2431 8.75475 19.2415 8.93501C19.24 9.11527 19.1677 9.28771 19.0402 9.41517C18.9127 9.54264 18.7403 9.61495 18.56 9.61651C18.3798 9.61808 18.2061 9.54878 18.0764 9.42355L16.5 7.84711L14.9236 9.42355C14.8597 9.48738 14.7839 9.538 14.7004 9.57253C14.617 9.60706 14.5276 9.62481 14.4373 9.62478C14.347 9.62475 14.2575 9.60693 14.1741 9.57235C14.0907 9.53776 14.0149 9.48708 13.9511 9.4232C13.8873 9.35933 13.8366 9.28351 13.8021 9.20007C13.7676 9.11663 13.7498 9.0272 13.7499 8.9369C13.7499 8.8466 13.7677 8.75719 13.8023 8.67377C13.8369 8.59035 13.8876 8.51457 13.9514 8.45074L15.5279 6.87499L13.9514 5.29855C13.8876 5.23467 13.837 5.15885 13.8025 5.07541C13.7679 4.99197 13.7502 4.90255 13.7502 4.81224C13.7502 4.72194 13.7681 4.63253 13.8026 4.54911C13.8372 4.4657 13.8879 4.38991 13.9518 4.32608C14.0157 4.26225 14.0915 4.21163 14.1749 4.1771C14.2584 4.14257 14.3478 4.12482 14.4381 4.12485C14.5284 4.12488 14.6178 4.1427 14.7012 4.17728C14.7846 4.21187 14.8604 4.26255 14.9243 4.32642L16.5 5.90286L18.0764 4.32642C18.2054 4.19754 18.3802 4.12513 18.5625 4.12513C18.7448 4.12513 18.9196 4.19754 19.0486 4.32642ZM13.1986 22.5005C13.6589 22.6539 14.1549 22.6645 14.6213 22.531C15.0878 22.3975 15.503 22.1262 15.8125 21.7525V28.8908L7.5625 25.7812V20.6222L13.1986 22.5005Z" fill="#66CCFF"/>
<path fill-rule="evenodd" clip-rule="evenodd" d="M25.4375 25.7812L17.1875 28.8908V21.7525C17.497 22.1262 17.9122 22.3975 18.3787 22.531C18.8451 22.6645 19.3411 22.6539 19.8014 22.5005L25.4375 20.6222V25.7812ZM16.7248 10.3503C16.5792 10.2999 16.4208 10.2999 16.2752 10.3503L7.33907 13.444L7.32326 13.4489C7.20305 13.4934 7.09776 13.5708 7.01938 13.6723L4.27626 17.1015C4.20697 17.188 4.15961 17.2899 4.1382 17.3986C4.11679 17.5073 4.12197 17.6196 4.1533 17.7259C4.18463 17.8321 4.24118 17.9293 4.31813 18.009C4.39508 18.0887 4.49016 18.1486 4.59526 18.1837L13.8765 21.2774C14.0171 21.3241 14.169 21.3242 14.3096 21.2776C14.4502 21.2311 14.572 21.1403 14.6568 21.0189L16.5 18.3858L18.3425 21.0189C18.4274 21.1405 18.5493 21.2313 18.6901 21.2779C18.8308 21.3245 18.9829 21.3243 19.1235 21.2774L28.4048 18.1837C28.5099 18.1487 28.6051 18.0888 28.6821 18.0092C28.7591 17.9295 28.8158 17.8324 28.8471 17.7261C28.8785 17.6198 28.8838 17.5075 28.8624 17.3988C28.8411 17.29 28.7937 17.188 28.7244 17.1015L25.9813 13.6723C25.8993 13.5662 25.7879 13.4866 25.6609 13.4434L16.7248 10.3503ZM16.5 16.4601L23.3358 14.0937L16.5 11.7274L9.6642 14.0937L16.5 16.4601Z" fill="#66CCFF"/>
</svg>
