<svg width="33" height="33" viewBox="0 0 33 33" fill="none" xmlns="http://www.w3.org/2000/svg">
<path d="M4.125 2.75H8.25C8.635 2.75 8.97875 2.90125 9.22625 3.14875L12.0862 6.0225L13.1863 4.93625C13.75 4.4 14.4375 4.125 15.125 4.125H23.375C24.0625 4.125 24.75 4.4 25.3137 4.93625L26.6887 6.31125C27.225 6.875 27.5 7.5625 27.5 8.25V26.125C27.5 26.8543 27.2103 27.5538 26.6945 28.0695C26.1788 28.5853 25.4793 28.875 24.75 28.875H11C10.2707 28.875 9.57118 28.5853 9.05546 28.0695C8.53973 27.5538 8.25 26.8543 8.25 26.125V11C8.25 10.3125 8.525 9.625 9.06125 9.06125L10.1475 7.96125L7.68625 5.5H4.125V2.75ZM15.125 6.875V9.625H23.375V6.875H15.125ZM15.6887 15.125L12.9387 12.375H11V14.3137L13.75 17.0637V21.4363L11 24.1863V26.125H12.9387L15.6887 23.375H20.0613L22.8113 26.125H24.75V24.1863L22 21.4363V17.0637L24.75 14.3137V12.375H22.8113L20.0613 15.125H15.6887ZM16.5 17.875H19.25V20.625H16.5V17.875Z" fill="#66CCFF"/>
</svg>
