<svg width="34" height="34" viewBox="0 0 34 34" fill="none" xmlns="http://www.w3.org/2000/svg">
<path d="M17 8.66667C16.1159 8.66667 15.2681 8.31548 14.643 7.69036C14.0179 7.06523 13.6667 6.21739 13.6667 5.33333C13.6667 4.44928 14.0179 3.60143 14.643 2.97631C15.2681 2.35119 16.1159 2 17 2C17.8841 2 18.7319 2.35119 19.357 2.97631C19.9821 3.60143 20.3333 4.44928 20.3333 5.33333C20.3333 6.21739 19.9821 7.06523 19.357 7.69036C18.7319 8.31548 17.8841 8.66667 17 8.66667ZM17 8.66667V15.3333M17 15.3333C18.3261 15.3333 19.5979 15.8601 20.5355 16.7978C21.4732 17.7355 22 19.0073 22 20.3333C22 21.6594 21.4732 22.9312 20.5355 23.8689C19.5979 24.8065 18.3261 25.3333 17 25.3333C15.6739 25.3333 14.4021 24.8065 13.4645 23.8689C12.5268 22.9312 12 21.6594 12 20.3333C12 19.0073 12.5268 17.7355 13.4645 16.7978C14.4021 15.8601 15.6739 15.3333 17 15.3333ZM8.16667 26.6667L12.8333 23.3333M25.8333 26.6667L21.1667 23.3333M2 28.6667C2 29.5507 2.35119 30.3986 2.97631 31.0237C3.60143 31.6488 4.44928 32 5.33333 32C6.21739 32 7.06523 31.6488 7.69036 31.0237C8.31548 30.3986 8.66667 29.5507 8.66667 28.6667C8.66667 27.7826 8.31548 26.9348 7.69036 26.3096C7.06523 25.6845 6.21739 25.3333 5.33333 25.3333C4.44928 25.3333 3.60143 25.6845 2.97631 26.3096C2.35119 26.9348 2 27.7826 2 28.6667ZM25.3333 28.6667C25.3333 29.5507 25.6845 30.3986 26.3096 31.0237C26.9348 31.6488 27.7826 32 28.6667 32C29.5507 32 30.3986 31.6488 31.0237 31.0237C31.6488 30.3986 32 29.5507 32 28.6667C32 27.7826 31.6488 26.9348 31.0237 26.3096C30.3986 25.6845 29.5507 25.3333 28.6667 25.3333C27.7826 25.3333 26.9348 25.6845 26.3096 26.3096C25.6845 26.9348 25.3333 27.7826 25.3333 28.6667Z" stroke="#66CCFF" stroke-width="2.5" stroke-linecap="round" stroke-linejoin="round"/>
</svg>
