<svg width="18" height="18" viewBox="0 0 18 18" fill="none" xmlns="http://www.w3.org/2000/svg">
<g clip-path="url(#clip0_24_41)">
<path d="M15.8399 16.56C16.6352 16.56 17.2799 15.9153 17.2799 15.12C17.2799 14.3247 16.6352 13.68 15.8399 13.68C15.0446 13.68 14.3999 14.3247 14.3999 15.12C14.3999 15.9153 15.0446 16.56 15.8399 16.56Z" fill="#FF3333"/>
<path d="M5.39996 16.56C6.19525 16.56 6.83996 15.9153 6.83996 15.12C6.83996 14.3247 6.19525 13.68 5.39996 13.68C4.60467 13.68 3.95996 14.3247 3.95996 15.12C3.95996 15.9153 4.60467 16.56 5.39996 16.56Z" fill="#FF3333"/>
<path d="M16.92 11.88H5.67756L5.91768 11.4905C6.02064 11.3234 6.05088 11.1215 6.00156 10.9314L5.7672 10.0292L16.2011 9.48708C16.5967 9.46692 16.92 9.126 16.92 8.73V3.96C16.92 3.564 16.596 3.24 16.2 3.24H4.00284L3.86208 2.69892C3.82198 2.5446 3.73179 2.40796 3.60565 2.31042C3.47951 2.21289 3.32457 2.15998 3.16512 2.16H0.72C0.529044 2.16 0.345909 2.23586 0.210883 2.37089C0.0758569 2.50591 0 2.68905 0 2.88C0 3.07096 0.0758569 3.25409 0.210883 3.38912C0.345909 3.52415 0.529044 3.6 0.72 3.6H2.60856L4.53096 10.9962L3.77496 12.222C3.70772 12.3311 3.67082 12.4561 3.6681 12.5842C3.66538 12.7123 3.69693 12.8388 3.75948 12.9506C3.82178 13.0626 3.91286 13.1559 4.02331 13.2208C4.13376 13.2858 4.25956 13.32 4.38768 13.32H16.92C17.111 13.32 17.2941 13.2441 17.4291 13.1091C17.5641 12.9741 17.64 12.791 17.64 12.6C17.64 12.409 17.5641 12.2259 17.4291 12.0909C17.2941 11.9559 17.111 11.88 16.92 11.88Z" fill="#FF3333"/>
</g>
<defs>
<clipPath id="clip0_24_41">
<rect width="18" height="18" fill="white"/>
</clipPath>
</defs>
</svg>
