<svg width="32" height="32" viewBox="0 0 32 32" fill="none" xmlns="http://www.w3.org/2000/svg">
<path d="M5.97917 3.74025L18.2389 16L16.0001 18.2388L10.5439 12.7827C9.84298 13.9711 9.54929 15.3558 9.7075 16.7265C9.86571 18.0971 10.4672 19.3785 11.4204 20.376C12.3737 21.3734 13.6266 22.0323 14.9886 22.2524C16.3507 22.4726 17.7473 22.2419 18.9662 21.5955C20.1852 20.9491 21.1597 19.9223 21.7416 18.6713C22.3235 17.4203 22.4809 16.0135 22.19 14.6648C21.8991 13.3161 21.1757 12.0993 20.1299 11.1994C19.084 10.2995 17.7729 9.76579 16.3959 9.67933L13.5396 6.82142C15.6996 6.24217 17.9948 6.44352 20.021 7.39004C22.0472 8.33656 23.6745 9.96756 24.6164 11.9959C25.5584 14.0242 25.7546 16.3198 25.1704 18.4785C24.5863 20.6373 23.2593 22.5207 21.4231 23.7973C19.5869 25.0739 17.3592 25.6618 15.1322 25.4575C12.9052 25.2531 10.8217 24.2697 9.24842 22.6803C7.67518 21.0908 6.71311 18.9974 6.53157 16.7684C6.35004 14.5394 6.96069 12.3178 8.25601 10.4948L5.99342 8.23217C4.10527 10.6663 3.16891 13.7051 3.3596 16.7798C3.55029 19.8545 4.85496 22.7543 7.02941 24.9365C9.20386 27.1187 12.099 28.4337 15.173 28.6353C18.247 28.8369 21.2892 27.9113 23.73 26.0318C26.1708 24.1523 27.843 21.4477 28.4337 18.4243C29.0243 15.4008 28.4928 12.2657 26.9388 9.60583C25.3847 6.94594 22.9145 4.94356 19.9907 3.97349C17.0668 3.00342 13.8896 3.13215 11.0538 4.33558L8.67559 1.959C10.9362 0.777864 13.4496 0.162827 16.0001 0.166667C24.7448 0.166667 31.8334 7.25525 31.8334 16C31.8334 24.7448 24.7448 31.8333 16.0001 31.8333C7.25534 31.8333 0.166756 24.7448 0.166756 16C0.16437 13.6531 0.684779 11.3352 1.69018 9.21454C2.69558 7.09391 4.16072 5.22387 5.97917 3.74025Z" fill="#66CCFF"/>
</svg>
